<svg xmlns="http://www.w3.org/2000/svg" width="32" height="32" fill="none"><rect width="32" height="32" fill="url(#a)" rx="16"/><path fill="#fff" d="M25.451 10.667a1.05 1.05 0 0 0-1.075-1.01 1.055 1.055 0 0 0-1.03 1.063q.009.39-.023.781-.57.027-1.137-.03a4.2 4.2 0 0 0-2.019-2.82 4.18 4.18 0 0 0-3.453-.337 8 8 0 0 1-.594-.972q.323-.221.665-.41a1.058 1.058 0 0 0 .186-1.772 1.05 1.05 0 0 0-1.191-.077c-.58.317-1.131.697-1.64 1.13a1.06 1.06 0 0 0-.301 1.192c.286.73.659 1.423 1.11 2.064a4.3 4.3 0 0 0-.536.734.48.48 0 0 0 .011.494 8.3 8.3 0 0 0 1.148 1.454c-.27.113-.522.268-.747.461a14.6 14.6 0 0 1-2.573-2.844q.238-.458.506-.899a1.06 1.06 0 0 0-.049-1.17 1.05 1.05 0 0 0-1.098-.4 1.06 1.06 0 0 0-.65.478q-.48.79-.873 1.626a1.06 1.06 0 0 0 .064 1.011 16.7 16.7 0 0 0 3.698 4.128q-.015.197-.001.394l-.282-.112-.036-.013a16.7 16.7 0 0 0-5.29-1.086 1.05 1.05 0 0 0-.907.451 17.2 17.2 0 0 0-2.184 4.335 1.056 1.056 0 0 0 .662 1.333 1.05 1.05 0 0 0 1.334-.667c.39-1.164.923-2.276 1.586-3.31q.818.066 1.628.224a6.4 6.4 0 0 0-.775 1.073c-1.555 2.694-.912 5.974 1.435 7.33 2.347 1.354 5.51.271 7.065-2.422.226-.393.406-.8.541-1.21q.543.625 1.007 1.3a15 15 0 0 1-2.071 3.029 1.06 1.06 0 0 0-.16 1.16 1.05 1.05 0 0 0 1.733.236 17 17 0 0 0 2.662-4.058 1.06 1.06 0 0 0-.063-1.012 16.7 16.7 0 0 0-3.603-4.055l-.012-.01-.237-.186q.178-.087.342-.199a16.7 16.7 0 0 0 5.422 1.137 1.05 1.05 0 0 0 .909-.45q.527-.759.971-1.569a1.06 1.06 0 0 0-.1-1.167 1.05 1.05 0 0 0-1.115-.35c-.269.078-.495.26-.63.506q-.247.453-.525.888a14.6 14.6 0 0 1-3.748-.806q.084-.44.026-.878c.605.159 1.221.247 1.835.266a.48.48 0 0 0 .43-.234q.232-.404.368-.831c.78.07 1.567.046 2.343-.07a1.055 1.055 0 0 0 .883-.856c.12-.655.173-1.32.158-1.986"/><defs><linearGradient id="a" x1="16" x2="16" y1="0" y2="32" gradientUnits="userSpaceOnUse"><stop offset=".55" stop-color="#0064E6"/><stop offset="1" stop-color="#0884BC"/></linearGradient></defs></svg>