<svg xmlns="http://www.w3.org/2000/svg" width="120" height="192" fill="none"><g clip-path="url(#a)"><path fill="url(#b)" d="M0 0h1200v1920H0z"/><path fill="#fff" d="M69.163 117.894a1.01 1.01 0 0 0-1.032-.971 1.016 1.016 0 0 0-.99 1.021q.008.375-.022.751-.548.026-1.093-.029a4.027 4.027 0 0 0-5.257-3.033 7.5 7.5 0 0 1-.57-.933 7 7 0 0 1 .639-.395 1.016 1.016 0 0 0-.182-1.884 1.01 1.01 0 0 0-.784.109 9.3 9.3 0 0 0-1.576 1.085 1.02 1.02 0 0 0-.289 1.144 9.4 9.4 0 0 0 1.067 1.984 4 4 0 0 0-.514.705.46.46 0 0 0 .01.474c.312.5.679.97 1.102 1.397a2.7 2.7 0 0 0-.717.443 14 14 0 0 1-2.471-2.732q.228-.44.486-.864a1.02 1.02 0 0 0 .119-.766 1 1 0 0 0-.457-.625 1 1 0 0 0-.765-.117c-.26.064-.485.23-.625.459a17 17 0 0 0-.837 1.562 1.01 1.01 0 0 0 .06.972 16 16 0 0 0 3.553 3.965 2.6 2.6 0 0 0 0 .379l-.272-.108-.034-.013a16 16 0 0 0-5.081-1.043 1.02 1.02 0 0 0-.872.433 16.5 16.5 0 0 0-2.098 4.164 1.015 1.015 0 0 0 .636 1.282 1.016 1.016 0 0 0 1.28-.642 14.3 14.3 0 0 1 1.525-3.179q.786.063 1.564.215a6.2 6.2 0 0 0-.745 1.031c-1.494 2.588-.876 5.739 1.379 7.04s5.293.262 6.787-2.326q.325-.567.52-1.162.521.6.967 1.248a14.5 14.5 0 0 1-1.99 2.91 1.02 1.02 0 0 0-.154 1.116 1.01 1.01 0 0 0 .97.566 1 1 0 0 0 .696-.341 16.3 16.3 0 0 0 2.557-3.898 1.01 1.01 0 0 0-.061-.972 16 16 0 0 0-3.46-3.895l-.012-.009q-.114-.091-.228-.179.17-.084.328-.191a16 16 0 0 0 5.21 1.092 1.01 1.01 0 0 0 .871-.433q.507-.728.934-1.506a1.016 1.016 0 0 0-.398-1.375 1.02 1.02 0 0 0-.77-.084 1.02 1.02 0 0 0-.604.487q-.239.435-.505.853a14 14 0 0 1-3.6-.774q.079-.423.025-.844c.58.153 1.173.237 1.762.256a.46.46 0 0 0 .413-.225q.224-.388.354-.798c.75.067 1.506.044 2.25-.068a1.02 1.02 0 0 0 .848-.822 9.4 9.4 0 0 0 .153-1.907M48.71 31.956h-3.276V29.76h9v2.196h-3.24V42H48.71zm9.493 3.276V42H55.79V29.4h2.412v4.032q1.242-.648 2.232-.648.9 0 1.494.27.612.252.972.792.378.54.54 1.35t.162 1.926V42H61.19v-4.824q0-1.134-.27-1.674-.27-.558-1.08-.558-.702 0-1.404.216zm14.809 3.294H67.72q.018.828.432 1.206.414.36 1.224.36 1.674 0 2.988-.108l.504-.054.036 1.782q-2.034.504-3.744.504-2.034 0-2.952-1.08t-.918-3.51q0-4.842 3.978-4.842 3.924 0 3.924 4.068zm-5.31-1.836h3.114q0-1.08-.342-1.494-.324-.432-1.188-.432t-1.224.45q-.342.432-.36 1.476M27.748 54.956h-3.276V52.76h9v2.196h-3.24V65h-2.484zm14.353 6.57h-5.292q.018.828.432 1.206.414.36 1.224.36 1.674 0 2.988-.108l.504-.054.036 1.782q-2.034.504-3.744.504-2.034 0-2.952-1.08t-.918-3.51q0-4.842 3.978-4.842 3.924 0 3.924 4.068zm-5.31-1.836h3.114q0-1.08-.342-1.494-.324-.432-1.188-.432t-1.224.45q-.342.432-.36 1.476M46.525 65h-2.412V52.4h2.412zm9.603-3.474h-5.292q.018.828.432 1.206.414.36 1.224.36 1.674 0 2.988-.108l.504-.054.036 1.782q-2.034.504-3.744.504-2.034 0-2.952-1.08t-.918-3.51q0-4.842 3.978-4.842 3.924 0 3.924 4.068zm-5.31-1.836h3.114q0-1.08-.342-1.494-.324-.432-1.188-.432t-1.224.45q-.342.432-.36 1.476m11.57-3.906q.954 0 1.638.252.684.234 1.116.792.45.54.666 1.458.216.9.216 2.232t-.234 2.232-.774 1.458q-.522.54-1.386.774-.846.234-2.088.234-.396 0-1.098-.054a49 49 0 0 1-1.728-.126l-.684-.072V52.4h2.412v3.87q1.17-.486 1.944-.486m-.846 7.272q.594 0 .99-.126.396-.144.63-.45.234-.324.324-.828.09-.522.09-1.278 0-2.43-1.512-2.43-.756 0-1.368.18l-.252.054v4.806q.414.036.684.054t.414.018m11.591-.324V56h2.412v9h-2.394v-.504q-1.278.72-2.25.72-.936 0-1.548-.252a2.1 2.1 0 0 1-.972-.792q-.36-.54-.504-1.386-.144-.864-.144-2.07V56h2.412v4.752q0 .666.036 1.116.054.432.18.702.144.27.378.378.252.108.666.108a4.5 4.5 0 0 0 1.494-.252zm12.793 3.384q0 1.548-1.188 2.286-1.17.738-3.204.738-2.016 0-3.114-.54t-1.098-1.962q0-1.134 1.296-2.142-.666-.45-.666-1.368 0-.36.54-1.188l.162-.252q-1.224-.9-1.224-2.61t1.026-2.484q1.044-.774 2.754-.774.81 0 1.53.18l.288.054 2.898-.09v1.926l-1.35-.108q.396.612.396 1.224 0 .9-.234 1.512-.216.594-.684.972-.468.36-1.188.522a7.8 7.8 0 0 1-1.692.162q-.45 0-.738-.072-.18.432-.18.756 0 .306.306.414.27.09 1.44.126 1.134 0 1.89.144t1.206.468q.45.306.63.828.198.504.198 1.278m-6.084-7.11q0 1.332 1.386 1.332 1.368 0 1.368-1.332 0-1.314-1.368-1.314-1.386 0-1.386 1.314m-.144 7.38q0 .774 1.908.774 1.89 0 1.89-.9 0-.486-.324-.63-.27-.108-1.368-.144l-1.62-.126q-.486.486-.486 1.026m14.188-10.134-.036 1.998a59 59 0 0 0-1.908-.216 13 13 0 0 0-1.206-.072q-.9 0-1.153.162-.27.162-.27.504t.36.486q.18.072.612.18.45.09 1.189.216.72.126 1.224.342.504.198.828.522t.468.792.144 1.134q0 2.916-3.619 2.916-1.17 0-2.88-.324l-.575-.108.072-2.016q1.133.144 1.89.216.774.072 1.224.072.882 0 1.188-.18a.53.53 0 0 0 .305-.504q0-.342-.323-.504-.325-.144-1.728-.396a7 7 0 0 1-1.224-.288 2.7 2.7 0 0 1-.865-.504 2.1 2.1 0 0 1-.521-.792q-.162-.486-.162-1.206t.251-1.26q.27-.54.72-.9a3.2 3.2 0 0 1 1.099-.54q.647-.18 1.404-.18.52 0 1.241.09.738.072 1.656.252zM34.021 88h-2.484V75.76h4.23l2.16 8.928 2.16-8.928h4.23V88h-2.484v-9.468h-.27L39.17 87.46h-2.484l-2.394-8.928h-.27zm19.645-6.192v3.744q.036.432.144.612.108.162.45.234l-.072 1.818q-.918 0-1.476-.126a3.3 3.3 0 0 1-1.098-.504q-1.314.63-2.646.63-2.79 0-2.79-2.952 0-1.44.774-2.034.774-.612 2.376-.72l1.926-.144v-.558q0-.558-.252-.756-.252-.216-.81-.216l-3.384.144-.072-1.674q1.944-.522 3.672-.522 1.746 0 2.502.72t.756 2.304m-2.412 2.232-1.638.144q-1.008.09-1.008 1.08t.882.99a5.8 5.8 0 0 0 1.494-.216l.27-.072zm7.124-2.772V88h-2.412v-9h2.394v.504q1.206-.72 2.25-.72.9 0 1.494.27.612.252.972.792.378.54.54 1.35t.162 1.926V88h-2.412v-4.806q0-1.152-.27-1.692-.27-.558-1.08-.558-.72 0-1.422.252zm12.847 4.464V79h2.412v9h-2.394v-.504q-1.278.72-2.25.72-.936 0-1.548-.252a2.1 2.1 0 0 1-.972-.792q-.36-.54-.504-1.386-.144-.864-.144-2.07V79h2.412v4.752q0 .666.036 1.116.054.432.18.702.144.27.378.378.252.108.666.108a4.5 4.5 0 0 0 1.494-.252zm11.533-3.924v3.744q.036.432.144.612.108.162.45.234l-.072 1.818q-.918 0-1.476-.126a3.3 3.3 0 0 1-1.098-.504q-1.314.63-2.646.63-2.79 0-2.79-2.952 0-1.44.774-2.034.774-.612 2.376-.72l1.926-.144v-.558q0-.558-.252-.756-.252-.216-.81-.216l-3.384.144-.072-1.674q1.944-.522 3.672-.522 1.746 0 2.502.72t.756 2.304m-2.412 2.232-1.638.144q-1.008.09-1.008 1.08t.882.99a5.8 5.8 0 0 0 1.494-.216l.27-.072zM87.578 88h-2.412V75.4h2.412zM37.28 170.39V173H35.9v-6.8h1.38v2.99l.92-.1 1.12-2.89h1.57l-1.48 3.41 1.52 3.39h-1.59l-1.14-2.71zm5.197 2.61-1.23-5h1.32l.91 3.86h.23l.91-3.86h1.32l-1.76 7.1h-1.31l.55-2.1zm5.57 0h-1.34v-5h1.33v.53q.86-.5 1.6-.65v1.35a13 13 0 0 0-1.39.35l-.2.07zm3.15 0-1.23-5h1.32l.91 3.86h.23l.91-3.86h1.32l-1.76 7.1h-1.31l.55-2.1zm5.63 0h-1.34v-7h1.34zm3.336-5.12q1.24 0 1.77.69.53.68.53 1.92 0 2.63-2.3 2.63t-2.3-2.63q0-.6.12-1.08t.39-.82.71-.52q.44-.19 1.08-.19m0 4.1q.54 0 .74-.35.2-.36.2-1.14t-.2-1.12q-.2-.35-.74-.35t-.74.35q-.2.34-.2 1.12 0 .26.02.53.03.26.12.48.1.21.28.35.19.13.52.13m7.69-4.7q-1.09 0-1.09.72 0 .32.27.49.14.08.45.21.31.12.82.28.5.16.84.33t.55.4q.21.22.3.52.1.3.1.72 0 .54-.17.95-.171.4-.48.67-.31.27-.74.41a3.1 3.1 0 0 1-.96.14q-.78 0-1.91-.24l-.36-.07.14-1.07q1.34.18 2.05.18 1.06 0 1.06-.88a.59.59 0 0 0-.24-.5q-.26-.18-.98-.39a8 8 0 0 1-.99-.35 2.5 2.5 0 0 1-.65-.43 1.5 1.5 0 0 1-.36-.56 2.1 2.1 0 0 1-.11-.71q0-1.03.61-1.52.62-.5 1.71-.5.369 0 .84.05.47.05 1.04.15l.36.07-.11 1.09a41 41 0 0 0-1.21-.12 10 10 0 0 0-.78-.04m4.569 5.72h-1.34v-5h1.34zm0-5.64h-1.34V166h1.34zM75.06 173h-1.34v-7h1.34zm2.635 0h-1.34v-5h1.34zm0-5.64h-1.34V166h1.34zm2.579 1.9V173h-1.34v-5h1.33v.28q.67-.4 1.25-.4.5 0 .83.15.339.14.54.44.21.3.3.75t.09 1.07V173h-1.34v-2.67q0-.64-.15-.94-.15-.31-.6-.31-.4 0-.79.14z"/></g><defs><linearGradient id="b" x1="600" x2="600" y1="0" y2="1920" gradientUnits="userSpaceOnUse"><stop offset=".55" stop-color="#0064E6"/></linearGradient><clipPath id="a"><path fill="#fff" d="M0 0h120v192H0z"/></clipPath></defs></svg>